<svg width="24" height="24" viewBox="0 0 100 100" xmlns="http://www.w3.org/2000/svg">
  <!-- Cheetah head shape -->
  <ellipse cx="50" cy="45" rx="35" ry="30" fill="#FFB347" stroke="#FF8C00" stroke-width="2"/>
  
  <!-- Cheetah spots -->
  <circle cx="40" cy="35" r="3" fill="#8B4513"/>
  <circle cx="60" cy="35" r="3" fill="#8B4513"/>
  <circle cx="35" cy="50" r="2" fill="#8B4513"/>
  <circle cx="65" cy="50" r="2" fill="#8B4513"/>
  <circle cx="50" cy="55" r="2" fill="#8B4513"/>
  <circle cx="45" cy="40" r="2" fill="#8B4513"/>
  <circle cx="55" cy="45" r="2" fill="#8B4513"/>
  
  <!-- Eyes -->
  <circle cx="42" cy="40" r="4" fill="white"/>
  <circle cx="58" cy="40" r="4" fill="white"/>
  <circle cx="42" cy="40" r="2" fill="black"/>
  <circle cx="58" cy="40" r="2" fill="black"/>
  
  <!-- Nose -->
  <path d="M48 50 L52 50 L50 53 Z" fill="#8B4513"/>
  
  <!-- Mouth -->
  <path d="M50 53 Q45 58 40 55" stroke="#8B4513" stroke-width="1.5" fill="none"/>
  <path d="M50 53 Q55 58 60 55" stroke="#8B4513" stroke-width="1.5" fill="none"/>
  
  <!-- Ears -->
  <ellipse cx="35" cy="25" rx="8" ry="12" fill="#FFB347" stroke="#FF8C00" stroke-width="1"/>
  <ellipse cx="65" cy="25" rx="8" ry="12" fill="#FFB347" stroke="#FF8C00" stroke-width="1"/>
  <ellipse cx="35" cy="25" rx="4" ry="6" fill="#FF8C00"/>
  <ellipse cx="65" cy="25" rx="4" ry="6" fill="#FF8C00"/>
  
  <!-- Body hint -->
  <ellipse cx="50" cy="75" rx="20" ry="15" fill="#FFB347" stroke="#FF8C00" stroke-width="2"/>
  <circle cx="45" cy="70" r="2" fill="#8B4513"/>
  <circle cx="55" cy="72" r="2" fill="#8B4513"/>
  <circle cx="50" cy="80" r="2" fill="#8B4513"/>
  
  <!-- Speed lines for dynamic feel -->
  <line x1="5" y1="45" x2="15" y2="45" stroke="#FF8C00" stroke-width="2" opacity="0.6"/>
  <line x1="5" y1="50" x2="12" y2="50" stroke="#FF8C00" stroke-width="2" opacity="0.4"/>
  <line x1="5" y1="40" x2="18" y2="40" stroke="#FF8C00" stroke-width="2" opacity="0.5"/>
</svg>
